<?xml version="1.0" encoding="utf-8"?>
<!-- Generator: Adobe Illustrator 22.0.1, SVG Export Plug-In . SVG Version: 6.00 Build 0)  -->
<svg version="1.1" xmlns="http://www.w3.org/2000/svg" xmlns:xlink="http://www.w3.org/1999/xlink" x="0px" y="0px"
	 viewBox="0 0 15.3 31.1" style="enable-background:new 0 0 15.3 31.1;" xml:space="preserve">
<style type="text/css">
	.st0{fill:#FFFFFF;}
</style>
<g id="relleno_1_">
	<path class="st0" d="M14.5,10.5H9.8V7.9c0-0.3,0-0.6,0.1-0.9c0-0.2,0.1-0.5,0.3-0.6c0.1-0.2,0.3-0.3,0.6-0.4
		c0.3-0.1,0.7-0.1,1.2-0.1h2.5V0.8h-4.1c-1.2,0-2.3,0.2-3.1,0.5C6.4,1.5,5.7,2,5.2,2.5C4.7,3.1,4.3,3.8,4.1,4.6
		C3.9,5.4,3.8,6.4,3.8,7.4v3.1h-3v5.1h3.1v14.8h6.1V15.6H14L14.5,10.5L14.5,10.5z"/>
</g>
<g id="linea">
	<path d="M10.4,30.9H3.3V16.1H0.3V10h3V7.4c0-1.1,0.1-2.1,0.3-2.9c0.2-0.9,0.7-1.7,1.3-2.3c0.6-0.6,1.3-1.1,2.2-1.4
		c0.9-0.3,2-0.5,3.3-0.5H15v6.1h-3c-0.6,0-0.8,0.1-1,0.1c-0.2,0.1-0.3,0.1-0.4,0.2c-0.1,0.1-0.1,0.2-0.2,0.4c0,0.2-0.1,0.5-0.1,0.8
		v2h4.7l-0.6,6.1h-4.1V30.9z M4.3,29.9h5.1V15.1h4.2L14,11H9.3v-3c0-0.4,0-0.7,0.1-1c0-0.3,0.2-0.6,0.4-0.9c0.2-0.2,0.5-0.4,0.8-0.6
		c0.3-0.1,0.8-0.2,1.3-0.2h2V1.3h-3.6c-1.2,0-2.2,0.1-2.9,0.4C6.7,2,6,2.4,5.6,2.9C5.1,3.4,4.8,4,4.6,4.7C4.4,5.5,4.3,6.4,4.3,7.4
		V11h-3v4.1h3.1V29.9z"/>
</g>
</svg>
