<?xml version="1.0" encoding="utf-8"?>
<!-- Generator: Adobe Illustrator 22.0.1, SVG Export Plug-In . SVG Version: 6.00 Build 0)  -->
<svg version="1.1" id="Layer_1" xmlns="http://www.w3.org/2000/svg" xmlns:xlink="http://www.w3.org/1999/xlink" x="0px" y="0px"
	 viewBox="0 0 13.5 14.4" style="enable-background:new 0 0 13.5 14.4;" xml:space="preserve">
<style type="text/css">
	.st0{clip-path:url(#SVGID_2_);}
	.st1{clip-path:url(#SVGID_4_);}
	.st2{fill:#FFFFFF;}
</style>
<title>instagram</title>
<g>
	<defs>
		<path id="SVGID_1_" d="M3.1,0C1.3,0.1-0.1,1.6,0,3.4c0,0,0,0,0,0v7.6c-0.1,1.8,1.3,3.3,3.1,3.4c0,0,0,0,0,0h7.1
			c1.8-0.1,3.2-1.6,3.1-3.4c0,0,0,0,0,0V3.4C13.4,1.6,12,0.1,10.2,0c0,0,0,0,0,0H3.1z M10.6,2.1c0.4,0,0.8,0.4,0.8,0.8
			c0.1,0.4-0.2,0.8-0.7,0.9c-0.4,0.1-0.8-0.2-0.9-0.7c0-0.1,0-0.1,0-0.2C9.8,2.5,10.1,2.1,10.6,2.1C10.6,2.1,10.6,2.1,10.6,2.1z
			 M6.7,3.6c1.9,0.1,3.4,1.7,3.3,3.6c0.1,1.9-1.4,3.5-3.3,3.6c-1.9-0.1-3.4-1.7-3.3-3.6C3.3,5.2,4.8,3.7,6.7,3.6z M6.7,4.4
			c-1.5,0-2.6,1.3-2.6,2.7c0,0,0,0,0,0C4.1,8.6,5.2,9.8,6.7,9.9c0,0,0,0,0,0c1.5,0,2.6-1.3,2.6-2.7c0,0,0,0,0,0
			C9.3,5.7,8.1,4.5,6.7,4.4C6.7,4.4,6.7,4.4,6.7,4.4z"/>
	</defs>
	<use xlink:href="#SVGID_1_"  style="overflow:visible;fill:#FFFFFF;"/>
	<clipPath id="SVGID_2_">
		<use xlink:href="#SVGID_1_"  style="overflow:visible;"/>
	</clipPath>
	<g class="st0">
		<g>
			<defs>
				<rect id="SVGID_3_" x="-871.5" y="-610.4" width="899.7" height="639.8"/>
			</defs>
			<use xlink:href="#SVGID_3_"  style="overflow:visible;fill:#FFFFFF;"/>
			<clipPath id="SVGID_4_">
				<use xlink:href="#SVGID_3_"  style="overflow:visible;"/>
			</clipPath>
			<g class="st1">
				<rect x="-3.1" y="-3.1" class="st2" width="19.6" height="20.6"/>
			</g>
		</g>
	</g>
</g>
</svg>
