<?xml version="1.0" encoding="utf-8"?>
<!-- Generator: Adobe Illustrator 22.0.1, SVG Export Plug-In . SVG Version: 6.00 Build 0)  -->
<svg version="1.1" id="Layer_1" xmlns="http://www.w3.org/2000/svg" xmlns:xlink="http://www.w3.org/1999/xlink" x="0px" y="0px"
	 viewBox="0 0 14.4 15.6" style="enable-background:new 0 0 14.4 15.6;" xml:space="preserve">
<title>instagram</title>
<g>
	<path d="M3.6,15.5c-2.1-0.1-3.7-1.9-3.6-3.9L0,4c-0.1-1,0.3-1.9,1-2.7c0.7-0.7,1.6-1.2,2.6-1.2l0,0h7.1c1,0.1,2,0.5,2.6,1.2
		c0.7,0.7,1,1.7,1,2.7l0,7.6c0.1,1-0.3,1.9-1,2.7c-0.7,0.7-1.6,1.2-2.6,1.2L3.6,15.5z M3.6,1.1C2.9,1.2,2.2,1.5,1.7,2
		C1.2,2.6,1,3.3,1,4l0,7.6c-0.1,1.5,1.1,2.8,2.6,2.9l7.1,0c0.7,0,1.4-0.4,1.9-0.9s0.7-1.2,0.7-2l0-7.6c0-0.8-0.2-1.5-0.7-2
		s-1.2-0.9-1.9-0.9L3.6,1.1z M7.2,11.9c-1.1-0.1-2.1-0.5-2.8-1.3c-0.7-0.8-1.1-1.8-1-2.8c-0.1-2.1,1.5-4,3.8-4.1l0,0l0,0
		c2.2,0.1,3.9,2,3.8,4.1c0.1,1-0.3,2-1,2.8C9.3,11.4,8.3,11.9,7.2,11.9z M7.2,5.5c-1.3,0-2.1,1.1-2.1,2.2C5.1,9,6,9.9,7.2,10
		c1.3,0,2.1-1.1,2.1-2.2C9.3,6.6,8.4,5.6,7.2,5.5z M11,4.9c-0.2,0-0.4-0.1-0.6-0.2c-0.3-0.2-0.5-0.5-0.6-0.9l0-0.3
		c0-0.6,0.5-1.3,1.3-1.3c0.7,0,1.3,0.6,1.3,1.2c0.1,0.3,0,0.6-0.2,0.8c-0.2,0.3-0.5,0.5-0.9,0.6C11.2,4.9,11.1,4.9,11,4.9z
		 M11.1,3.2c-0.2,0-0.3,0.2-0.3,0.3v0.2c0,0,0.1,0.1,0.2,0.2c0.1,0,0.1,0,0.1,0c0.2,0,0.3-0.1,0.3-0.2c0-0.1,0-0.1,0-0.1l0-0.1
		C11.4,3.4,11.2,3.2,11.1,3.2z"/>
</g>
</svg>
