<?xml version="1.0" encoding="utf-8"?>
<!-- Generator: Adobe Illustrator 22.0.1, SVG Export Plug-In . SVG Version: 6.00 Build 0)  -->
<svg version="1.1" id="Layer_1" xmlns="http://www.w3.org/2000/svg" xmlns:xlink="http://www.w3.org/1999/xlink" x="0px" y="0px"
	 viewBox="0 0 62.2 54.7" style="enable-background:new 0 0 62.2 54.7;" xml:space="preserve">
<style type="text/css">
	.st0{fill:#FFFFFF;}
</style>
<g>
	<g>
		<g>
			<path class="st0" d="M0.5,44.7h1.2v8.2H6v1H0.5V44.7z"/>
		</g>
		<g>
			<path class="st0" d="M13.4,52.9v1H7.6v-9.2h5.7v1H8.8v2.9h4.3v1H8.8v3.2H13.4z"/>
		</g>
		<g>
			<path class="st0" d="M21.3,52.9v1h-5.8v-9.2h5.7v1h-4.5v2.9H21v1h-4.3v3.2H21.3z"/>
		</g>
		<g>
			<path class="st0" d="M26.6,50.1h-1.9V54h-1.2v-9.2h3.4c2.4,0,3.1,1.4,3.1,2.7c0,1-0.5,2.2-2.1,2.5l2.4,4h-1.4L26.6,50.1z
				 M24.7,49.1h2c1.4,0,1.9-0.7,1.9-1.7c0-0.9-0.5-1.7-1.9-1.7h-2V49.1z"/>
		</g>
		<g>
			<path class="st0" d="M35.5,44.7h1.8l2.4,7.1c0.2,0.5,0.2,0.5,0.2,0.9h0c0.1-0.3,0.1-0.4,0.2-0.9l2.4-7.1h1.8V54h-1.1v-7.1
				c0-0.4,0-0.7,0.1-1h-0.1c0,0.2-0.2,0.7-0.3,1.1L40.5,54h-1.2l-2.4-7.1c-0.1-0.3-0.2-0.9-0.3-1.1h-0.1c0,0.3,0.1,0.6,0.1,1V54
				h-1.1V44.7z"/>
		</g>
		<g>
			<path class="st0" d="M51.9,51.3h-3.8L47.2,54h-1.3l3.5-9.2h1.2l3.5,9.2h-1.3L51.9,51.3z M51.6,50.3l-1.3-3.6
				c-0.1-0.2-0.2-0.4-0.2-0.7h0c-0.1,0.3-0.1,0.5-0.2,0.7l-1.3,3.6H51.6z M50.6,44.2h-1l1.2-1.4h1.2L50.6,44.2z"/>
		</g>
		<g>
			<path class="st0" d="M54.6,51.2l1.2-0.2c0.2,1.1,0.9,2.1,2.5,2.1c1,0,2.1-0.4,2.1-1.6c0-1.1-0.7-1.4-1.8-1.7l-1.3-0.3
				c-1.3-0.3-2.3-1-2.3-2.5c0-1.5,1.2-2.6,3.2-2.6c1.8,0,3.2,0.8,3.4,2.6l-1.2,0.3c-0.2-1.2-0.8-1.9-2.2-1.9c-1.1,0-1.9,0.6-1.9,1.5
				c0,0.9,0.5,1.4,1.5,1.6l1.4,0.3c1.4,0.3,2.5,0.9,2.5,2.6c0,1.4-1.1,2.7-3.4,2.7C56,54.2,54.8,52.9,54.6,51.2z"/>
		</g>
	</g>
	<g>
		<g>
			<path class="st0" d="M30.7,33.3L14.9,17.5l1.5-1.6l13.2,13.2V0.5h2.1v28.6L45,15.9l1.5,1.6L30.7,33.3z"/>
		</g>
	</g>
</g>
</svg>
