<?xml version="1.0" encoding="utf-8"?>
<!-- Generator: Adobe Illustrator 22.0.1, SVG Export Plug-In . SVG Version: 6.00 Build 0)  -->
<svg version="1.1" id="Layer_1" xmlns="http://www.w3.org/2000/svg" xmlns:xlink="http://www.w3.org/1999/xlink" x="0px" y="0px"
	 viewBox="0 0 417.1 56.6" style="enable-background:new 0 0 417.1 56.6;" xml:space="preserve">
<style type="text/css">
	.st0{fill:#FFFFFF;}
	.st1{fill:#EC1B2E;}
	.st2{fill:#E6B239;}
	.st3{fill:#67A845;}
	.st4{fill:#CF1E2E;}
	.st5{fill:#EE402F;}
	.st6{fill:#31C0F0;}
	.st7{fill:#F9C316;}
	.st8{fill:#A21D45;}
	.st9{fill:#F16B2E;}
	.st10{fill:#DC1768;}
	.st11{fill:#F89D29;}
	.st12{fill:#BE8C2C;}
	.st13{fill:#3F8047;}
	.st14{fill:#2196D3;}
	.st15{fill:#5AB947;}
	.st16{fill:#156A9E;}
	.st17{fill:#12496B;}
</style>
<g>
	<path class="st0" d="M69.3,27.5c0-9.3,6.3-15.2,16.2-15.2c8.4,0,13.6,3.7,14.9,10.6l-5.3,0.6c-1-4.5-4.3-6.9-9.7-6.9
		c-6.8,0-10.7,3.9-10.7,10.8s4.1,10.9,10.8,10.9c5.2,0,8.5-2.3,9.9-6.8l5,0.8c-1.4,6.5-7,10.4-15,10.4
		C75.7,42.6,69.3,36.7,69.3,27.5z"/>
	<path class="st0" d="M106,27.5c0-9.3,6.6-15.2,16.4-15.2s16.3,5.9,16.3,15.2s-6.5,15.2-16.3,15.2C112.5,42.6,106,36.7,106,27.5z
		 M133.3,27.5c0-6.9-4.2-10.8-11-10.8s-11,3.9-11,10.8s4.2,10.8,11,10.8S133.3,34.4,133.3,27.5z"/>
	<path class="st0" d="M144.2,27.5c0-8.9,6.2-15.2,15.2-15.2c5.3,0,9.2,1.8,11.8,5.7V0.3h5v41.5h-4.9v-5.6c-2.4,4.2-6.6,6.4-12.4,6.4
		C150.3,42.6,144.2,36.4,144.2,27.5z M171.3,28.2v-1.3c0-6.2-4.5-10.2-11.2-10.2c-6.5,0-10.5,4.1-10.5,10.8s4.1,10.8,10.8,10.8
		C166.8,38.2,171.3,34.2,171.3,28.2z"/>
	<path class="st0" d="M184.5,33.4l4.7-1.5c1.5,4.3,5.4,6.7,11.4,6.7c5.1,0,7.9-1.5,7.9-4.6c0-2.7-1.4-3.9-5.2-4.2l-8.4-0.6
		c-6.2-0.6-9.2-3.5-9.2-8.2c0-5.4,4.9-8.6,13-8.6c7.9,0,13.2,3.2,14.7,8.2l-4.7,1.6c-1.5-3.7-4.6-5.8-10.2-5.8
		c-4.9,0-7.8,1.6-7.8,4.5c0,2.3,1.8,3.7,5.5,4.1l8.5,0.6c6.4,0.6,8.9,3.4,8.9,8.1c0,5.6-4.3,9.1-13.3,9.1
		C191.8,42.6,186.6,39.3,184.5,33.4z"/>
</g>
<path class="st1" d="M25.3,3.5c0-1.9,1.5-3.4,3.4-3.4s3.4,1.5,3.4,3.4s-1.5,3.4-3.4,3.4S25.3,5.4,25.3,3.5"/>
<path class="st2" d="M40.8,6c-0.7,1.8-2.6,2.7-4.4,2c-1.8-0.7-2.7-2.6-2-4.4s2.6-2.7,4.4-2C40.6,2.3,41.5,4.3,40.8,6"/>
<path class="st3" d="M47.6,12.1c-1.2,1.4-3.4,1.6-4.8,0.3c-1.4-1.2-1.6-3.4-0.3-4.8c1.2-1.4,3.4-1.6,4.8-0.3
	C48.7,8.5,48.9,10.7,47.6,12.1"/>
<path class="st4" d="M52.3,20.2c-1.7,0.9-3.7,0.3-4.6-1.4c-0.9-1.7-0.3-3.7,1.4-4.6c1.7-0.9,3.7-0.2,4.6,1.4S54,19.3,52.3,20.2"/>
<path class="st5" d="M53.8,29.3c-1.9,0.2-3.6-1.1-3.8-3s1.1-3.6,3-3.8s3.6,1.1,3.8,3C57,27.3,55.7,29,53.8,29.3"/>
<path class="st6" d="M51.8,38.2c-1.8-0.4-3-2.3-2.5-4.1c0.4-1.8,2.3-3,4.1-2.5c1.8,0.4,3,2.3,2.5,4.1C55.4,37.5,53.6,38.6,51.8,38.2
	"/>
<path class="st7" d="M46.8,46.1c-1.6-1-2.2-3-1.2-4.7c1-1.6,3-2.2,4.7-1.2c1.6,1,2.2,3.1,1.2,4.7S48.4,47,46.8,46.1"/>
<path class="st8" d="M39.1,51.3c-1.1-1.5-0.7-3.7,0.8-4.8s3.7-0.7,4.8,0.8s0.7,3.7-0.8,4.8C42.3,53.3,40.2,52.9,39.1,51.3"/>
<path class="st9" d="M30.1,53.6c-0.5-1.8,0.6-3.7,2.4-4.2s3.7,0.6,4.2,2.4c0.5,1.8-0.6,3.7-2.4,4.2C32.4,56.5,30.5,55.4,30.1,53.6"
	/>
<path class="st10" d="M20.9,52.5c0.2-1.9,1.9-3.2,3.8-3s3.2,1.9,3,3.8c-0.2,1.9-1.9,3.2-3.8,3C22,56,20.7,54.4,20.9,52.5"/>
<path class="st11" d="M12.7,48.1c0.8-1.7,2.9-2.4,4.6-1.5c1.7,0.8,2.4,2.9,1.5,4.6c-0.9,1.7-2.9,2.4-4.6,1.5
	C12.5,51.8,11.8,49.8,12.7,48.1"/>
<path class="st12" d="M6.8,40.9c1.4-1.3,3.5-1.2,4.8,0.2s1.2,3.5-0.2,4.8s-3.5,1.2-4.8-0.2S5.4,42.2,6.8,40.9"/>
<path class="st13" d="M3.5,32.3c1.7-0.7,3.7,0.1,4.4,1.9c0.7,1.7-0.1,3.7-1.9,4.4c-1.7,0.7-3.7-0.1-4.4-1.9C0.9,35,1.7,33,3.5,32.3"
	/>
<path class="st14" d="M3.8,23c1.9,0,3.4,1.5,3.5,3.3c0,1.9-1.5,3.4-3.3,3.5c-1.9,0-3.4-1.5-3.5-3.3C0.5,24.6,2,23,3.8,23"/>
<path class="st15" d="M7.3,14.4C9.1,15,10,17,9.4,18.8S6.8,21.5,5,20.9s-2.7-2.6-2.1-4.4S5.5,13.8,7.3,14.4"/>
<path class="st16" d="M13.7,7.7c1.4,1.2,1.6,3.4,0.4,4.8s-3.4,1.6-4.8,0.4S7.7,9.5,8.9,8.1S12.3,6.5,13.7,7.7"/>
<path class="st17" d="M22.3,3.6c0.9,1.6,0.3,3.7-1.3,4.6c-1.6,0.9-3.7,0.3-4.6-1.3s-0.3-3.7,1.3-4.6C19.3,1.3,21.3,1.9,22.3,3.6"/>
<g>
	<path class="st0" d="M230.7,15.9c-0.6-1-0.9-2.5-0.9-4.6s0.3-3.6,1-4.5c0.7-1,1.7-1.5,3.1-1.5c2.3,0,3.5,1.3,3.6,3.9L236,9.4
		c-0.1-1.9-0.8-2.8-2.2-2.8c-0.6,0-1.1,0.2-1.5,0.5s-0.6,0.9-0.8,1.5c-0.2,0.7-0.2,1.6-0.2,2.7s0.1,2.1,0.2,2.7
		c0.2,0.7,0.4,1.2,0.8,1.5c0.4,0.3,0.9,0.5,1.5,0.5c0.7,0,1.2-0.2,1.5-0.7c0.4-0.5,0.6-1.2,0.7-2.1l1.4,0.2
		c-0.1,1.2-0.5,2.2-1.1,2.8s-1.5,1-2.5,1C232.4,17.3,231.4,16.8,230.7,15.9z"/>
	<path class="st0" d="M240.9,15.8h4.5V17h-5.9V5.6h5.8v1.2h-4.4v3.8h4.1v1.2h-4.1L240.9,15.8L240.9,15.8z"/>
	<path class="st0" d="M247.4,5.6h1.7l4,8c0.1,0.3,0.2,0.5,0.3,0.7s0.2,0.5,0.3,0.9l0,0c-0.1-0.6-0.1-1.3-0.1-2.2V5.6h1.3V17h-1.5
		l-4.1-8.2c-0.1-0.3-0.2-0.5-0.3-0.7s-0.1-0.4-0.2-0.6c-0.1-0.2-0.1-0.3-0.1-0.4l0,0c0.1,0.7,0.1,1.3,0.1,1.9v7.9h-1.3L247.4,5.6
		L247.4,5.6z"/>
	<path class="st0" d="M263.6,5.6v1.2h-2.9V17h-1.4V6.8h-2.9V5.6H263.6z"/>
	<path class="st0" d="M268.2,12.2h-1.7v4.9H265V5.6h3.3c2.2,0,3.4,1.1,3.4,3.3c0,0.8-0.2,1.4-0.5,2c-0.3,0.5-0.8,0.9-1.5,1.1
		l2.3,5.1h-1.6L268.2,12.2z M266.4,11.1h1.8c1.3,0,1.9-0.7,1.9-2.2c0-0.7-0.2-1.3-0.5-1.6s-0.8-0.5-1.5-0.5h-1.7L266.4,11.1
		L266.4,11.1z"/>
	<path class="st0" d="M273,11.3c0-4,1.4-6,4.1-6c2.8,0,4.1,2,4.1,6s-1.4,6-4.1,6S273,15.3,273,11.3z M279.1,15
		c0.4-0.8,0.7-2,0.7-3.6c0-1.7-0.2-2.9-0.7-3.6c-0.4-0.8-1.1-1.2-2-1.2s-1.5,0.4-2,1.2c-0.4,0.8-0.7,2-0.7,3.6
		c0,1.7,0.2,2.9,0.7,3.6c0.4,0.8,1.1,1.2,2,1.2C278,16.1,278.6,15.7,279.1,15z"/>
	<path class="st0" d="M286.8,5.6h2.9c1.5,0,2.6,0.5,3.4,1.4c0.8,1,1.1,2.4,1.1,4.2c0,1.9-0.4,3.3-1.2,4.3c-0.8,1-1.9,1.5-3.4,1.5
		h-2.9V5.6H286.8z M289.6,15.9c1,0,1.8-0.4,2.3-1.2s0.8-1.9,0.8-3.5c0-1.5-0.3-2.7-0.8-3.4s-1.3-1.1-2.3-1.1h-1.5v9.2H289.6z"/>
	<path class="st0" d="M297.6,15.8h4.5V17h-5.9V5.6h5.8v1.2h-4.4v3.8h4.1v1.2h-4.1V15.8z"/>
	<path class="st0" d="M307.7,17.1V5.6h1.4v10.2h4.1V17h-5.5V17.1z"/>
	<path class="st0" d="M313.8,11.3c0-4,1.4-6,4.1-6c2.8,0,4.1,2,4.1,6s-1.4,6-4.1,6C315.2,17.3,313.8,15.3,313.8,11.3z M319.9,15
		c0.4-0.8,0.7-2,0.7-3.6c0-1.7-0.2-2.9-0.7-3.6c-0.4-0.8-1.1-1.2-2-1.2s-1.5,0.4-2,1.2c-0.4,0.8-0.7,2-0.7,3.6
		c0,1.7,0.2,2.9,0.7,3.6c0.4,0.8,1.1,1.2,2,1.2C318.8,16.1,319.5,15.7,319.9,15z"/>
	<path class="st0" d="M324.3,16.4c-0.6-0.6-1-1.6-1-2.9l1.5-0.2c0.1,1,0.3,1.8,0.6,2.2c0.4,0.5,1,0.7,1.7,0.7c0.5,0,1-0.2,1.3-0.5
		s0.5-0.8,0.5-1.4c0-0.6-0.1-1.1-0.4-1.4c-0.2-0.3-0.7-0.6-1.2-0.8l-1.4-0.5c-0.7-0.2-1.3-0.6-1.7-1.2c-0.4-0.6-0.6-1.2-0.6-2
		c0-0.9,0.3-1.7,0.9-2.2s1.4-0.8,2.4-0.8c1.1,0,1.9,0.3,2.5,0.8c0.6,0.6,0.9,1.5,1,2.7l-1.5,0.3c-0.1-0.9-0.2-1.6-0.6-2
		c-0.3-0.4-0.8-0.7-1.4-0.7s-1,0.2-1.3,0.5s-0.5,0.8-0.5,1.3c0,1,0.5,1.7,1.5,2l1.4,0.5c1.6,0.5,2.4,1.7,2.4,3.4
		c0,1-0.3,1.8-0.9,2.3c-0.6,0.6-1.4,0.9-2.4,0.9C325.8,17.3,324.9,17,324.3,16.4z"/>
	<path class="st0" d="M335.2,11.3c0-4,1.4-6,4.1-6c2.8,0,4.1,2,4.1,6s-1.4,6-4.1,6S335.2,15.3,335.2,11.3z M341.3,15
		c0.4-0.8,0.7-2,0.7-3.6c0-1.7-0.2-2.9-0.7-3.6c-0.4-0.8-1.1-1.2-2-1.2s-1.5,0.4-2,1.2c-0.4,0.8-0.7,2-0.7,3.6
		c0,1.7,0.2,2.9,0.7,3.6c0.4,0.8,1.1,1.2,2,1.2C340.2,16.1,340.8,15.7,341.3,15z"/>
	<path class="st0" d="M351.6,12c0.4,0.5,0.5,1.1,0.5,1.9c0,0.9-0.3,1.7-0.8,2.3c-0.5,0.6-1.4,0.9-2.6,0.9h-3.3V5.6h3.1
		c1.2,0,2,0.3,2.5,0.9s0.8,1.3,0.8,2.1c0,0.6-0.2,1.2-0.5,1.6c-0.3,0.4-0.8,0.7-1.4,0.9C350.7,11.2,351.2,11.5,351.6,12z M346.8,6.7
		v3.9h1.7c0.7,0,1.2-0.2,1.5-0.5c0.3-0.4,0.4-0.8,0.4-1.4c0-1.3-0.7-2-2-2C348.4,6.7,346.8,6.7,346.8,6.7z M350.6,13.8
		c0-0.7-0.2-1.2-0.5-1.6c-0.3-0.4-0.8-0.6-1.5-0.6h-1.8v4.2h1.8C350,15.9,350.6,15.2,350.6,13.8z"/>
	<path class="st0" d="M356,16.6c-0.5,0.4-1.2,0.6-2,0.6c-0.5,0-0.9,0-1.1-0.1v-1.3c0.3,0.1,0.7,0.1,1.1,0.1c1,0,1.4-0.5,1.4-1.5V5.6
		h1.4v8.9C356.8,15.5,356.5,16.2,356,16.6z"/>
	<path class="st0" d="M360.6,15.8h4.5V17h-5.9V5.6h5.8v1.2h-4.4v3.8h4.1v1.2h-4.1V15.8z"/>
	<path class="st0" d="M373.4,5.6v1.2h-2.9V17h-1.4V6.8h-2.9V5.6H373.4z"/>
	<path class="st0" d="M376.2,17.1h-1.4V5.6h1.4V17.1z"/>
	<path class="st0" d="M377.6,5.6h1.5l2.1,8.5c0.2,0.6,0.3,1,0.3,1.5h0.1c0.1-0.4,0.2-0.9,0.3-1.5l2.1-8.5h1.5L382.4,17h-1.6
		L377.6,5.6z"/>
	<path class="st0" d="M386.2,11.3c0-4,1.4-6,4.1-6c2.8,0,4.1,2,4.1,6s-1.4,6-4.1,6S386.2,15.3,386.2,11.3z M392.3,15
		c0.4-0.8,0.7-2,0.7-3.6c0-1.7-0.2-2.9-0.7-3.6c-0.4-0.8-1.1-1.2-2-1.2s-1.5,0.4-2,1.2c-0.4,0.8-0.7,2-0.7,3.6
		c0,1.7,0.2,2.9,0.7,3.6c0.4,0.8,1.1,1.2,2,1.2C391.2,16.1,391.8,15.7,392.3,15z"/>
	<path class="st0" d="M396.6,16.4c-0.6-0.6-1-1.6-1-2.9l1.5-0.2c0.1,1,0.3,1.8,0.6,2.2c0.4,0.5,1,0.7,1.7,0.7c0.5,0,1-0.2,1.3-0.5
		s0.5-0.8,0.5-1.4c0-0.6-0.1-1.1-0.4-1.4c-0.2-0.3-0.7-0.6-1.2-0.8l-1.4-0.5c-0.7-0.2-1.3-0.6-1.7-1.2c-0.4-0.6-0.6-1.2-0.6-2
		c0-0.9,0.3-1.7,0.9-2.2s1.4-0.8,2.4-0.8c1.1,0,1.9,0.3,2.5,0.8c0.6,0.6,0.9,1.5,1,2.7l-1.5,0.3c-0.1-0.9-0.2-1.6-0.6-2
		c-0.3-0.4-0.8-0.7-1.4-0.7s-1,0.2-1.3,0.5s-0.5,0.8-0.5,1.3c0,1,0.5,1.7,1.5,2l1.4,0.5c1.6,0.5,2.4,1.7,2.4,3.4
		c0,1-0.3,1.8-0.9,2.3c-0.6,0.6-1.4,0.9-2.4,0.9C398.2,17.3,397.2,17,396.6,16.4z"/>
</g>
<g>
	<path class="st0" d="M230.4,21.7h2.9c1.5,0,2.6,0.5,3.4,1.4c0.8,1,1.1,2.4,1.1,4.2c0,1.9-0.4,3.3-1.2,4.3s-1.9,1.5-3.4,1.5h-2.9
		L230.4,21.7L230.4,21.7z M233.3,32c1,0,1.8-0.4,2.3-1.2c0.5-0.8,0.8-1.9,0.8-3.5c0-1.5-0.3-2.7-0.8-3.4c-0.5-0.7-1.3-1.1-2.3-1.1
		h-1.5V32H233.3z"/>
	<path class="st0" d="M241.3,32h4.5v1.2h-5.9V21.7h5.8v1.2h-4.4v3.8h4.1v1.2h-4.1L241.3,32L241.3,32z"/>
	<path class="st0" d="M251.3,21.7h2.9c1.5,0,2.6,0.5,3.4,1.4c0.8,1,1.1,2.4,1.1,4.2c0,1.9-0.4,3.3-1.2,4.3c-0.8,1-1.9,1.5-3.4,1.5
		h-2.9L251.3,21.7L251.3,21.7z M254.2,32c1,0,1.8-0.4,2.3-1.2c0.5-0.8,0.8-1.9,0.8-3.5c0-1.5-0.3-2.7-0.8-3.4
		c-0.5-0.7-1.3-1.1-2.3-1.1h-1.5V32H254.2z"/>
	<path class="st0" d="M262.2,32h4.5v1.2h-5.9V21.7h5.8v1.2h-4.4v3.8h4.1v1.2h-4.1V32z"/>
	<path class="st0" d="M268.7,32.5c-0.6-0.6-1-1.6-1-2.9l1.5-0.2c0.1,1,0.3,1.8,0.6,2.2c0.4,0.5,1,0.7,1.7,0.7c0.5,0,1-0.2,1.3-0.5
		s0.5-0.8,0.5-1.4s-0.1-1.1-0.4-1.4c-0.2-0.3-0.7-0.6-1.2-0.8l-1.4-0.5c-0.7-0.2-1.3-0.6-1.7-1.2c-0.4-0.6-0.6-1.2-0.6-2
		c0-0.9,0.3-1.7,0.9-2.2s1.4-0.8,2.4-0.8c1.1,0,1.9,0.3,2.5,0.8c0.6,0.6,0.9,1.5,1,2.7l-1.5,0.3c-0.1-0.9-0.2-1.6-0.6-2
		c-0.3-0.4-0.8-0.7-1.4-0.7s-1,0.2-1.3,0.5s-0.5,0.8-0.5,1.3c0,1,0.5,1.7,1.5,2l1.4,0.5c1.6,0.5,2.4,1.7,2.4,3.4
		c0,1-0.3,1.8-0.9,2.3c-0.6,0.6-1.4,0.9-2.4,0.9C270.3,33.5,269.4,33.1,268.7,32.5z"/>
	<path class="st0" d="M282.5,33.2l-0.9-3.3H278l-0.9,3.3h-1.4l3.4-11.4h1.6l3.4,11.4H282.5z M281.2,28.7l-1.2-4.3
		c-0.1-0.4-0.2-0.8-0.3-1.3l0,0c-0.1,0.5-0.2,0.9-0.3,1.3l-1.2,4.3H281.2z"/>
	<path class="st0" d="M288.6,28.3h-1.7v4.9h-1.4V21.7h3.3c2.2,0,3.4,1.1,3.4,3.3c0,0.8-0.2,1.4-0.5,2c-0.3,0.5-0.8,0.9-1.5,1.1
		l2.3,5.1h-1.6L288.6,28.3z M286.9,27.2h1.8c1.3,0,1.9-0.7,1.9-2.2c0-0.7-0.2-1.3-0.5-1.6s-0.8-0.5-1.5-0.5h-1.7L286.9,27.2
		L286.9,27.2z"/>
	<path class="st0" d="M297.4,28.3h-1.7v4.9h-1.4V21.7h3.3c2.2,0,3.4,1.1,3.4,3.3c0,0.8-0.2,1.4-0.5,2c-0.3,0.5-0.8,0.9-1.5,1.1
		l2.3,5.1h-1.6L297.4,28.3z M295.6,27.2h1.8c1.3,0,1.9-0.7,1.9-2.2c0-0.7-0.2-1.3-0.5-1.6s-0.8-0.5-1.5-0.5h-1.7L295.6,27.2
		L295.6,27.2z"/>
	<path class="st0" d="M302.2,27.4c0-4,1.4-6,4.1-6c2.8,0,4.1,2,4.1,6s-1.4,6-4.1,6C303.5,33.5,302.2,31.4,302.2,27.4z M308.3,31.1
		c0.4-0.8,0.7-2,0.7-3.6c0-1.7-0.2-2.9-0.7-3.6c-0.4-0.8-1.1-1.2-2-1.2s-1.5,0.4-2,1.2c-0.4,0.8-0.7,2-0.7,3.6
		c0,1.7,0.2,2.9,0.7,3.6c0.4,0.8,1.1,1.2,2,1.2C307.2,32.2,307.8,31.9,308.3,31.1z"/>
	<path class="st0" d="M312.4,33.2V21.7h1.4v10.2h4.1v1.2L312.4,33.2L312.4,33.2z"/>
	<path class="st0" d="M319.6,33.2V21.7h1.4v10.2h4.1v1.2L319.6,33.2L319.6,33.2z"/>
	<path class="st0" d="M325.8,27.4c0-4,1.4-6,4.1-6c2.8,0,4.1,2,4.1,6s-1.4,6-4.1,6C327.1,33.5,325.8,31.4,325.8,27.4z M331.9,31.1
		c0.4-0.8,0.7-2,0.7-3.6c0-1.7-0.2-2.9-0.7-3.6c-0.4-0.8-1.1-1.2-2-1.2s-1.5,0.4-2,1.2c-0.4,0.8-0.7,2-0.7,3.6
		c0,1.7,0.2,2.9,0.7,3.6c0.4,0.8,1.1,1.2,2,1.2C330.8,32.2,331.4,31.9,331.9,31.1z"/>
	<path class="st0" d="M339.7,32.5c-0.6-0.6-1-1.6-1-2.9l1.5-0.2c0.1,1,0.3,1.8,0.6,2.2c0.4,0.5,1,0.7,1.7,0.7c0.5,0,1-0.2,1.3-0.5
		s0.5-0.8,0.5-1.4s-0.1-1.1-0.4-1.4c-0.2-0.3-0.7-0.6-1.2-0.8l-1.4-0.5c-0.7-0.2-1.3-0.6-1.7-1.2c-0.4-0.6-0.6-1.2-0.6-2
		c0-0.9,0.3-1.7,0.9-2.2s1.4-0.8,2.4-0.8c1.1,0,1.9,0.3,2.5,0.8c0.6,0.6,0.9,1.5,1,2.7l-1.5,0.3c-0.1-0.9-0.2-1.6-0.6-2
		c-0.3-0.4-0.8-0.7-1.4-0.7s-1,0.2-1.3,0.5s-0.5,0.8-0.5,1.3c0,1,0.5,1.7,1.5,2l1.4,0.5c1.6,0.5,2.4,1.7,2.4,3.4
		c0,1-0.3,1.8-0.9,2.3c-0.6,0.6-1.4,0.9-2.4,0.9C341.3,33.5,340.4,33.1,339.7,32.5z"/>
	<path class="st0" d="M347.1,27.4c0-4,1.4-6,4.1-6c2.8,0,4.1,2,4.1,6s-1.4,6-4.1,6C348.5,33.5,347.1,31.4,347.1,27.4z M353.2,31.1
		c0.4-0.8,0.7-2,0.7-3.6c0-1.7-0.2-2.9-0.7-3.6c-0.4-0.8-1.1-1.2-2-1.2s-1.5,0.4-2,1.2c-0.4,0.8-0.7,2-0.7,3.6
		c0,1.7,0.2,2.9,0.7,3.6c0.4,0.8,1.1,1.2,2,1.2C352.1,32.2,352.8,31.9,353.2,31.1z"/>
	<path class="st0" d="M357.6,32.5c-0.6-0.6-1-1.6-1-2.9l1.5-0.2c0.1,1,0.3,1.8,0.6,2.2c0.4,0.5,1,0.7,1.7,0.7c0.5,0,1-0.2,1.3-0.5
		s0.5-0.8,0.5-1.4s-0.1-1.1-0.4-1.4c-0.2-0.3-0.7-0.6-1.2-0.8l-1.4-0.5c-0.7-0.2-1.3-0.6-1.7-1.2c-0.4-0.6-0.6-1.2-0.6-2
		c0-0.9,0.3-1.7,0.9-2.2s1.4-0.8,2.4-0.8c1.1,0,1.9,0.3,2.5,0.8c0.6,0.6,0.9,1.5,1,2.7l-1.5,0.3c-0.1-0.9-0.2-1.6-0.6-2
		c-0.3-0.4-0.8-0.7-1.4-0.7s-1,0.2-1.3,0.5s-0.5,0.8-0.5,1.3c0,1,0.5,1.7,1.5,2l1.4,0.5c1.6,0.5,2.4,1.7,2.4,3.4
		c0,1-0.3,1.8-0.9,2.3c-0.6,0.6-1.4,0.9-2.4,0.9C359.1,33.5,358.2,33.1,357.6,32.5z"/>
	<path class="st0" d="M371.4,21.7V23h-2.9v10.2h-1.4V23h-2.9v-1.2L371.4,21.7L371.4,21.7z"/>
	<path class="st0" d="M374.3,32h4.5v1.2h-5.9V21.7h5.8v1.2h-4.4v3.8h4.1v1.2h-4.1V32z"/>
	<path class="st0" d="M380.8,21.7h1.7l4,8c0.1,0.3,0.2,0.5,0.3,0.7s0.2,0.5,0.3,0.9l0,0c-0.1-0.6-0.1-1.3-0.1-2.2v-7.5h1.3V33h-1.5
		l-4.1-8.2c-0.1-0.3-0.2-0.5-0.3-0.7s-0.1-0.4-0.2-0.6s-0.1-0.3-0.1-0.4l0,0c0.1,0.7,0.1,1.3,0.1,1.9v7.9h-1.3L380.8,21.7
		L380.8,21.7z"/>
	<path class="st0" d="M392.3,33.2h-1.4V21.7h1.4V33.2z"/>
	<path class="st0" d="M401.1,28.1c0.4,0.5,0.5,1.1,0.5,1.9c0,0.9-0.3,1.7-0.8,2.3s-1.4,0.9-2.6,0.9h-3.3V21.7h3.1
		c1.2,0,2,0.3,2.5,0.9s0.8,1.3,0.8,2.1c0,0.6-0.2,1.2-0.5,1.6s-0.8,0.7-1.4,0.9C400.2,27.3,400.7,27.6,401.1,28.1z M396.3,22.8v3.9
		h1.7c0.7,0,1.2-0.2,1.5-0.5c0.3-0.4,0.4-0.8,0.4-1.4c0-1.3-0.7-2-2-2H396.3z M400.2,30c0-0.7-0.2-1.2-0.5-1.6s-0.8-0.6-1.5-0.6
		h-1.8V32h1.8C399.5,32.1,400.2,31.4,400.2,30z"/>
	<path class="st0" d="M403.6,33.2V21.7h1.4v10.2h4.1v1.2L403.6,33.2L403.6,33.2z"/>
	<path class="st0" d="M412.2,32h4.5v1.2h-5.9V21.7h5.8v1.2h-4.4v3.8h4.1v1.2h-4.1V32z"/>
</g>
<g>
	<path class="st0" d="M236.1,38.7c0.6,0.6,0.9,1.4,0.9,2.4c0,1.1-0.3,1.9-0.9,2.5c-0.6,0.6-1.4,0.9-2.5,0.9h-1.8v4.7h-1.4V37.9h3.2
		C234.6,37.9,235.5,38.1,236.1,38.7z M234.9,42.8c0.3-0.4,0.5-1,0.5-1.7s-0.2-1.2-0.5-1.6c-0.3-0.4-0.8-0.6-1.5-0.6h-1.6v4.5h1.7
		C234.1,43.4,234.6,43.2,234.9,42.8z"/>
	<path class="st0" d="M243.6,49.3l-0.9-3.3h-3.6l-0.9,3.3h-1.4l3.4-11.4h1.6l3.4,11.4C245.2,49.3,243.6,49.3,243.6,49.3z
		 M242.3,44.8l-1.2-4.3c-0.1-0.4-0.2-0.8-0.3-1.3l0,0c-0.1,0.5-0.2,0.9-0.3,1.3l-1.2,4.3H242.3z"/>
	<path class="st0" d="M249.7,44.4H248v4.9h-1.4V37.9h3.3c2.2,0,3.4,1.1,3.4,3.3c0,0.8-0.2,1.4-0.5,2c-0.3,0.5-0.8,0.9-1.5,1.1
		l2.3,5.1H252L249.7,44.4z M248,43.3h1.8c1.3,0,1.9-0.7,1.9-2.2c0-0.7-0.2-1.3-0.5-1.6s-0.8-0.5-1.5-0.5H248V43.3z"/>
	<path class="st0" d="M261.2,49.3l-0.9-3.3h-3.6l-0.9,3.3h-1.4l3.4-11.4h1.6l3.4,11.4C262.8,49.3,261.2,49.3,261.2,49.3z M260,44.8
		l-1.2-4.3c-0.1-0.4-0.2-0.8-0.3-1.3l0,0c-0.1,0.5-0.2,0.9-0.3,1.3l-1.2,4.3H260z"/>
	<path class="st0" d="M273.6,49.3l-0.9-3.3h-3.6l-0.9,3.3h-1.4l3.4-11.4h1.6l3.4,11.4C275.2,49.3,273.6,49.3,273.6,49.3z
		 M272.3,44.8l-1.2-4.3c-0.1-0.4-0.2-0.8-0.3-1.3l0,0c-0.1,0.5-0.2,0.9-0.3,1.3l-1.2,4.3H272.3z"/>
	<path class="st0" d="M276.6,37.9h2.1l2.3,8.6c0.1,0.5,0.2,1,0.3,1.4l0,0c0-0.2,0-0.4,0.1-0.6s0.1-0.4,0.2-0.7l2.3-8.6h2.1v11.4
		h-1.3v-8c0-1.1,0-1.8,0-2.2h-0.1c0,0.3-0.1,0.9-0.3,1.7l-2.3,8.5h-1.5l-2.3-8.5l-0.3-1.7h-0.1c0,0.5,0,1.3,0,2.2v8h-1.3L276.6,37.9
		L276.6,37.9z"/>
	<path class="st0" d="M289.9,48.1h4.5v1.2h-5.9V37.9h5.8v1.2h-4.4v3.8h4.1V44h-4.1V48.1z M293.5,35.4l-1.5,1.7h-1.2l1.3-1.7H293.5z"
		/>
	<path class="st0" d="M299.6,44.4h-1.7v4.9h-1.4V37.9h3.3c2.2,0,3.4,1.1,3.4,3.3c0,0.8-0.2,1.4-0.5,2c-0.3,0.5-0.8,0.9-1.5,1.1
		l2.3,5.1h-1.6L299.6,44.4z M297.8,43.3h1.8c1.3,0,1.9-0.7,1.9-2.2c0-0.7-0.2-1.3-0.5-1.6s-0.8-0.5-1.5-0.5h-1.7L297.8,43.3
		L297.8,43.3z"/>
	<path class="st0" d="M306.6,49.3h-1.4V37.9h1.4V49.3z"/>
	<path class="st0" d="M309.5,48.1c-0.6-1-0.9-2.5-0.9-4.6s0.3-3.6,1-4.5c0.7-1,1.7-1.5,3.1-1.5c2.3,0,3.5,1.3,3.6,3.9l-1.4,0.1
		c-0.1-1.9-0.8-2.8-2.2-2.8c-0.6,0-1.1,0.2-1.5,0.5s-0.6,0.9-0.8,1.5c-0.2,0.7-0.2,1.6-0.2,2.7c0,1.1,0.1,2.1,0.2,2.7
		c0.2,0.7,0.4,1.2,0.8,1.5s0.9,0.5,1.5,0.5c0.7,0,1.2-0.2,1.5-0.7c0.4-0.5,0.6-1.2,0.7-2.1l1.4,0.2c-0.1,1.2-0.5,2.2-1.1,2.8
		s-1.5,1-2.5,1C311.2,49.6,310.2,49.1,309.5,48.1z"/>
	<path class="st0" d="M323.9,49.3L323,46h-3.6l-0.9,3.3h-1.4l3.4-11.4h1.6l3.4,11.4C325.5,49.3,323.9,49.3,323.9,49.3z M322.7,44.8
		l-1.2-4.3c-0.1-0.4-0.2-0.8-0.3-1.3l0,0c-0.1,0.5-0.2,0.9-0.3,1.3l-1.2,4.3H322.7z"/>
	<path class="st0" d="M330.5,49.3V37.9h1.4v10.2h4.1v1.2C336,49.3,330.5,49.3,330.5,49.3z"/>
	<path class="st0" d="M343.9,49.3L343,46h-3.6l-0.9,3.3H337l3.4-11.4h1.6l3.4,11.4C345.4,49.3,343.9,49.3,343.9,49.3z M342.6,44.8
		l-1.2-4.3c-0.1-0.4-0.2-0.8-0.3-1.3l0,0c-0.1,0.5-0.2,0.9-0.3,1.3l-1.2,4.3H342.6z"/>
	<path class="st0" d="M352,37.9v1.2h-2.9v10.2h-1.4V39.1h-2.9v-1.2C344.8,37.9,352,37.9,352,37.9z"/>
	<path class="st0" d="M354.9,49.3h-1.4V37.9h1.4V49.3z"/>
	<path class="st0" d="M357.5,37.9h1.7l4,8c0.1,0.3,0.2,0.5,0.3,0.7s0.2,0.5,0.3,0.9l0,0c-0.1-0.6-0.1-1.3-0.1-2.2v-7.5h1.3v11.4
		h-1.5l-4.1-8.2c-0.1-0.3-0.2-0.5-0.3-0.7s-0.1-0.4-0.2-0.6c-0.1-0.2-0.1-0.3-0.1-0.4l0,0c0.1,0.7,0.1,1.3,0.1,1.9v7.9h-1.3
		L357.5,37.9L357.5,37.9z"/>
	<path class="st0" d="M373.4,49.3l-0.9-3.3h-3.6l-0.9,3.3h-1.4l3.4-11.4h1.6l3.4,11.4C375,49.3,373.4,49.3,373.4,49.3z M372.2,44.8
		l-1.2-4.3c-0.1-0.4-0.2-0.8-0.3-1.3l0,0c-0.1,0.5-0.2,0.9-0.3,1.3l-1.2,4.3H372.2z"/>
</g>
</svg>
