<?xml version="1.0" encoding="utf-8"?>
<!-- Generator: Adobe Illustrator 22.0.1, SVG Export Plug-In . SVG Version: 6.00 Build 0)  -->
<svg version="1.1" id="Layer_1" xmlns="http://www.w3.org/2000/svg" xmlns:xlink="http://www.w3.org/1999/xlink" x="0px" y="0px"
	 viewBox="0 0 214 56.6" style="enable-background:new 0 0 214 56.6;" xml:space="preserve">
<style type="text/css">
	.st0{fill:#FFFFFF;}
	.st1{fill:#EC1B2E;}
	.st2{fill:#E6B239;}
	.st3{fill:#67A845;}
	.st4{fill:#CF1E2E;}
	.st5{fill:#EE402F;}
	.st6{fill:#31C0F0;}
	.st7{fill:#F9C316;}
	.st8{fill:#A21D45;}
	.st9{fill:#F16B2E;}
	.st10{fill:#DC1768;}
	.st11{fill:#F89D29;}
	.st12{fill:#BE8C2C;}
	.st13{fill:#3F8047;}
	.st14{fill:#2196D3;}
	.st15{fill:#5AB947;}
	.st16{fill:#156A9E;}
	.st17{fill:#12496B;}
</style>
<g>
	<path class="st0" d="M69.3,27.5c0-9.3,6.3-15.2,16.2-15.2c8.4,0,13.6,3.7,14.9,10.6l-5.3,0.6c-1-4.5-4.3-6.9-9.7-6.9
		c-6.8,0-10.7,3.9-10.7,10.8s4.1,10.9,10.8,10.9c5.2,0,8.5-2.3,9.9-6.8l5,0.8c-1.4,6.5-7,10.4-15,10.4
		C75.7,42.6,69.3,36.7,69.3,27.5z"/>
	<path class="st0" d="M106,27.5c0-9.3,6.6-15.2,16.4-15.2s16.3,5.9,16.3,15.2s-6.5,15.2-16.3,15.2C112.5,42.6,106,36.7,106,27.5z
		 M133.3,27.5c0-6.9-4.2-10.8-11-10.8s-11,3.9-11,10.8s4.2,10.8,11,10.8S133.3,34.4,133.3,27.5z"/>
	<path class="st0" d="M144.2,27.5c0-8.9,6.2-15.2,15.2-15.2c5.3,0,9.2,1.8,11.8,5.7V0.3h5v41.5h-4.9v-5.6c-2.4,4.2-6.6,6.4-12.4,6.4
		C150.3,42.6,144.2,36.4,144.2,27.5z M171.3,28.2v-1.3c0-6.2-4.5-10.2-11.2-10.2c-6.5,0-10.5,4.1-10.5,10.8s4.1,10.8,10.8,10.8
		C166.8,38.2,171.3,34.2,171.3,28.2z"/>
	<path class="st0" d="M184.5,33.4l4.7-1.5c1.5,4.3,5.4,6.7,11.4,6.7c5.1,0,7.9-1.5,7.9-4.6c0-2.7-1.4-3.9-5.2-4.2l-8.4-0.6
		c-6.2-0.6-9.2-3.5-9.2-8.2c0-5.4,4.9-8.6,13-8.6c7.9,0,13.2,3.2,14.7,8.2l-4.7,1.6c-1.5-3.7-4.6-5.8-10.2-5.8
		c-4.9,0-7.8,1.6-7.8,4.5c0,2.3,1.8,3.7,5.5,4.1l8.5,0.6c6.4,0.6,8.9,3.4,8.9,8.1c0,5.6-4.3,9.1-13.3,9.1
		C191.8,42.6,186.6,39.3,184.5,33.4z"/>
</g>
<path class="st1" d="M25.3,3.5c0-1.9,1.5-3.4,3.4-3.4s3.4,1.5,3.4,3.4s-1.5,3.4-3.4,3.4S25.3,5.4,25.3,3.5"/>
<path class="st2" d="M40.8,6c-0.7,1.8-2.6,2.7-4.4,2c-1.8-0.7-2.7-2.6-2-4.4s2.6-2.7,4.4-2C40.6,2.3,41.5,4.3,40.8,6"/>
<path class="st3" d="M47.6,12.1c-1.2,1.4-3.4,1.6-4.8,0.3c-1.4-1.2-1.6-3.4-0.3-4.8c1.2-1.4,3.4-1.6,4.8-0.3
	C48.7,8.5,48.9,10.7,47.6,12.1"/>
<path class="st4" d="M52.3,20.2c-1.7,0.9-3.7,0.3-4.6-1.4c-0.9-1.7-0.3-3.7,1.4-4.6c1.7-0.9,3.7-0.2,4.6,1.4S54,19.3,52.3,20.2"/>
<path class="st5" d="M53.8,29.3c-1.9,0.2-3.6-1.1-3.8-3s1.1-3.6,3-3.8s3.6,1.1,3.8,3C57,27.3,55.7,29,53.8,29.3"/>
<path class="st6" d="M51.8,38.2c-1.8-0.4-3-2.3-2.5-4.1c0.4-1.8,2.3-3,4.1-2.5c1.8,0.4,3,2.3,2.5,4.1C55.4,37.5,53.6,38.6,51.8,38.2
	"/>
<path class="st7" d="M46.8,46.1c-1.6-1-2.2-3-1.2-4.7c1-1.6,3-2.2,4.7-1.2c1.6,1,2.2,3.1,1.2,4.7S48.4,47,46.8,46.1"/>
<path class="st8" d="M39.1,51.3c-1.1-1.5-0.7-3.7,0.8-4.8s3.7-0.7,4.8,0.8s0.7,3.7-0.8,4.8C42.3,53.3,40.2,52.9,39.1,51.3"/>
<path class="st9" d="M30.1,53.6c-0.5-1.8,0.6-3.7,2.4-4.2s3.7,0.6,4.2,2.4c0.5,1.8-0.6,3.7-2.4,4.2C32.4,56.5,30.5,55.4,30.1,53.6"
	/>
<path class="st10" d="M20.9,52.5c0.2-1.9,1.9-3.2,3.8-3s3.2,1.9,3,3.8c-0.2,1.9-1.9,3.2-3.8,3C22,56,20.7,54.4,20.9,52.5"/>
<path class="st11" d="M12.7,48.1c0.8-1.7,2.9-2.4,4.6-1.5c1.7,0.8,2.4,2.9,1.5,4.6c-0.9,1.7-2.9,2.4-4.6,1.5
	C12.5,51.8,11.8,49.8,12.7,48.1"/>
<path class="st12" d="M6.8,40.9c1.4-1.3,3.5-1.2,4.8,0.2s1.2,3.5-0.2,4.8s-3.5,1.2-4.8-0.2S5.4,42.2,6.8,40.9"/>
<path class="st13" d="M3.5,32.3c1.7-0.7,3.7,0.1,4.4,1.9c0.7,1.7-0.1,3.7-1.9,4.4c-1.7,0.7-3.7-0.1-4.4-1.9C0.9,35,1.7,33,3.5,32.3"
	/>
<path class="st14" d="M3.8,23c1.9,0,3.4,1.5,3.5,3.3c0,1.9-1.5,3.4-3.3,3.5c-1.9,0-3.4-1.5-3.5-3.3C0.5,24.6,2,23,3.8,23"/>
<path class="st15" d="M7.3,14.4C9.1,15,10,17,9.4,18.8S6.8,21.5,5,20.9s-2.7-2.6-2.1-4.4S5.5,13.8,7.3,14.4"/>
<path class="st16" d="M13.7,7.7c1.4,1.2,1.6,3.4,0.4,4.8s-3.4,1.6-4.8,0.4S7.7,9.5,8.9,8.1S12.3,6.5,13.7,7.7"/>
<path class="st17" d="M22.3,3.6c0.9,1.6,0.3,3.7-1.3,4.6c-1.6,0.9-3.7,0.3-4.6-1.3s-0.3-3.7,1.3-4.6C19.3,1.3,21.3,1.9,22.3,3.6"/>
</svg>
