<?xml version="1.0" encoding="utf-8"?>
<!-- Generator: Adobe Illustrator 22.0.1, SVG Export Plug-In . SVG Version: 6.00 Build 0)  -->
<svg version="1.1" id="Layer_1" xmlns="http://www.w3.org/2000/svg" xmlns:xlink="http://www.w3.org/1999/xlink" x="0px" y="0px"
	 viewBox="0 0 147.4 41.8" style="enable-background:new 0 0 147.4 41.8;" xml:space="preserve">
<style type="text/css">
	.st0{fill:#231F20;}
</style>
<path class="st0" d="M32.7,11.7c-0.5,0.3-1,0.5-1.5,0.7L25.3,14l-4,12.3l-1,0.3l0.8-9.4l-0.5-2l-5.6,1.5L0.5,20.1
	c1.4,7.8,8.2,13.7,16.4,13.7c9.2,0,16.7-7.5,16.7-16.8C33.6,15.2,33.3,13.4,32.7,11.7"/>
<path class="st0" d="M20,13l-0.7-1.9l-5.9-7.5l1.1-0.3l10.1,8.4l5.9-1.6c0.5-0.1,1-0.2,1.5-0.2c0,0,0,0.1,0.1,0.1
	c-2.7-5.7-8.4-9.7-15.2-9.7C7.7,0.3,0.2,7.8,0.2,17.1c0,0.7,0.1,1.5,0.1,2.2l14.1-4.7L20,13z"/>
<path class="st0" d="M118.7,31.8L118.7,31.8l-0.1-14l0-0.1h3.7l0,0.1v14l-0.1,0.1H118.7z M120.6,14.9c-1.3,0-2.3-1-2.3-2.2
	c0-1.3,1-2.3,2.3-2.3c1.3,0,2.3,1,2.3,2.3C122.9,13.9,121.8,14.9,120.6,14.9 M99.8,25.7L99.8,25.7l-10.3,0c0.2,2.4,1.8,3.7,4.3,3.7
	c1.5,0,3.2-0.5,5.5-1.8l0.1,0.1l0,3.2l0,0c-2.2,0.9-4.3,1.5-6,1.5c-4.4,0-7.6-3.2-7.6-7.6c0-4.4,3.2-7.6,7.6-7.6
	c4,0,6.6,2.7,6.6,6.4C99.9,24.2,99.8,25.6,99.8,25.7 M93.3,20.3c-2,0-3.3,1.2-3.7,3.3l6.7,0v-0.1C96.3,21.7,95.1,20.3,93.3,20.3
	 M69,31.8h-4.5l0,0l-3.9-4.7l-3.9,4.7l0,0h-3.6l0,0l0-0.1l5.7-7l-5.6-6.9l0-0.1l0.1,0h4.5l0,0l3.4,4.2l3.4-4.2l0,0h3.7l0.1,0l0,0.1
	L63,24.3L69,31.8L69,31.8L69,31.8"/>
<path class="st0" d="M139.1,17.6l-0.2-0.2l-3,0l-0.2,0.2v0.5h-0.1c-1.4-0.6-2.6-0.9-3.7-0.9c-4.1,0-7.4,3.4-7.4,7.8
	c0,4.4,2.9,7.4,7.2,7.4c1.2,0,2.6-0.1,4-1.7v1.8c1-0.2,2.1-0.6,3.2-1.4L139.1,17.6z M135.3,28.6c-1.1,0.6-2.1,1-2.9,1
	c-2.4,0-3.9-1.6-3.9-4.3c0-3.1,1.7-5.1,4.3-5.1c0.7,0,1.5,0.3,2.5,0.8V28.6z M112,10.4v7.3c-1.1-0.3-2-0.5-3-0.5
	c-4.4,0-7.7,3.3-7.7,7.7c0,4.4,2.9,7.5,6.9,7.5c1.4,0,2.7-0.4,4.2-1.1l0,1.3c1-0.2,2.2-0.6,3.3-1.4V8.9C114.7,9,113.4,9.4,112,10.4
	 M112,28.6c-1.2,0.6-2.2,0.9-3.1,0.9c-2.3,0-3.7-1.6-3.7-4.3c0-3.1,1.7-5.1,4.4-5.1c0.7,0,1.5,0.2,2.4,0.6V28.6z M76.8,17.2
	c-1,0-2.1,0.2-3.2,0.6h-3.7l-0.1,0.1v22.9c1.1-0.2,2.5-0.5,3.8-1.5l0-7c0.9,0.1,1.7,0.2,2.4,0.2c5,0,8.3-3,8.3-7.7
	C84.4,20.3,81.3,17.2,76.8,17.2 M75.8,29.7c-0.7,0-1.4-0.1-2.1-0.3l0-9c0.9-0.3,1.7-0.4,2.5-0.4c2.6,0,4.3,1.9,4.3,4.7
	C80.5,27.8,78.7,29.7,75.8,29.7"/>
<path class="st0" d="M43,28.3l9.3,0c-0.1,1-0.5,2.3-1.3,3.5h-8l-1.6,0l-0.1,0c-1.2,0-2.2-0.9-2.3-2.1l0,0v-9.5v-8.8l0,0
	c0.1-1.2,1.1-2.1,2.3-2.1l0.1,0l10.8,0c-0.1,1-0.5,2.3-1.3,3.5h-8v5h7.9l0.1,0.1v3.4l-0.1,0.1H43V28.3z"/>
<path class="st0" d="M140.6,17.5c0-1.7,1.3-2.9,2.9-2.9c1.6,0,2.9,1.2,2.9,2.9c0,1.7-1.3,2.9-2.9,2.9
	C141.9,20.4,140.6,19.1,140.6,17.5 M143.5,19.9c1.3,0,2.3-1,2.3-2.4c0-1.4-1-2.4-2.3-2.4c-1.3,0-2.3,1-2.3,2.4
	C141.2,18.9,142.2,19.9,143.5,19.9 M142.9,19.1h-0.5v-3.3h1.3c0.8,0,1.2,0.3,1.2,0.9c0,0.6-0.4,0.9-0.9,0.9l0.9,1.5h-0.6l-0.9-1.4
	h-0.6V19.1z M143.5,17.3c0.4,0,0.8,0,0.8-0.5c0-0.4-0.4-0.5-0.7-0.5h-0.7v1H143.5z"/>
<path class="st0" d="M30,30.7c0-1.1,0.9-1.8,1.9-1.8c1,0,1.9,0.8,1.9,1.8c0,1.1-0.9,1.9-1.9,1.9C30.9,32.5,30,31.7,30,30.7
	 M31.9,32.2c0.8,0,1.5-0.7,1.5-1.5c0-0.9-0.7-1.5-1.5-1.5c-0.8,0-1.5,0.7-1.5,1.5C30.4,31.6,31,32.2,31.9,32.2 M31.5,31.7h-0.3v-2.1
	H32c0.5,0,0.8,0.2,0.8,0.6c0,0.4-0.2,0.5-0.6,0.6l0.6,0.9h-0.4l-0.6-0.9h-0.4V31.7z M31.9,30.5c0.3,0,0.5,0,0.5-0.3
	c0-0.3-0.2-0.3-0.5-0.3h-0.4v0.7H31.9z"/>
</svg>
