<?xml version="1.0" encoding="utf-8"?>
<!-- Generator: Adobe Illustrator 22.0.1, SVG Export Plug-In . SVG Version: 6.00 Build 0)  -->
<svg version="1.1" id="Layer_1" xmlns="http://www.w3.org/2000/svg" xmlns:xlink="http://www.w3.org/1999/xlink" x="0px" y="0px"
	 viewBox="0 0 175.9 36.8" style="enable-background:new 0 0 175.9 36.8;" xml:space="preserve">
<style type="text/css">
	.st0{fill:#D21F27;}
	.st1{fill:#FFE14D;}
	.st2{fill:#445EA7;}
</style>
<g>
	<path class="st0" d="M167.9,0v21.3H166v3.9h9.9v-3.9h-3.8V0H167.9z M138.4,0l0,8h-3.2v4.3h3.1l0,6.7c0.6,4,2,5.6,3.6,6.7l3.2-1.9
		c-1.2-0.9-2.5-3.2-2.6-4.5l0-6.9h3.4V8h-3.4l0-8L138.4,0z M85.5,0.1l-0.1,9.2c-4.7-4.2-11.5-0.1-11.9,7c-0.3,6.8,7.6,13,13.3,6.9
		l2,2.3l3.6-2c-2.1-1.5-2.9-3.2-2.8-5.1V0.1H85.5z M96.1,7.4v13.8h-1.9v3.9h8v-3.9h-1.8V7.4H96.1z M150.4,7.5v3.9l4.9,0
		c1.4,0.1,1.8,1.2,1.9,2.7c-8.3-0.5-9.3,4.3-9.3,5.8c0.1,3.7,3,5.9,6.4,5.9c2.1,0,4.1-1.4,4.6-2.2c0.6,1,1.2,1.6,1.9,2l3.3-2.1
		c-2.2-1.7-2.4-3.3-2.8-5v-5.3c0.1-1.1-1.5-5.3-5.6-5.5L150.4,7.5z M127.1,7.5v13.8h-1.9v3.9h8v-3.9h-1.8V7.5H127.1z M112.6,7.5
		c-4.5,0-8.1,4-8.1,9s3.6,9,8.1,9c1.4,0,2.7-0.4,3.8-1.1l0.1,1.1c0,2.8-4.2,5.7-8,1.7l-2.5,3.1c1.4,2,3.7,3.3,8,3
		c3-0.3,6.7-4,6.5-8.7l0.2-10.3c0.2-2.4,1.3-3.7,2.7-4.6l-3.5-2.2c-0.6,0.7-1.3,1.5-1.9,2.3C116.5,8.4,114.6,7.5,112.6,7.5
		 M81.5,11.5c2.1,0,3.9,2.3,3.9,5.1c0,2.8-1.7,5.1-3.9,5.1c-2.1,0-3.9-2.3-3.9-5.1C77.6,13.8,79.4,11.5,81.5,11.5 M112.5,11.5
		c2.1,0,3.9,2.3,3.9,5.1c0,2.8-1.7,5.1-3.9,5.1c-2.1,0-3.9-2.3-3.9-5.1C108.6,13.8,110.4,11.5,112.5,11.5 M154.6,17h2.7l0.3,3.3
		c-1.8,2-5.6,2.1-5.6,0.1l0-1.6C152.1,18.5,153,17.1,154.6,17"/>
	<path class="st1" d="M98.2,0.2c-1.3,0-2.4,1.1-2.4,2.4S96.8,5,98.2,5s2.4-1.1,2.4-2.4S99.5,0.2,98.2,0.2 M22.7,0.3
		c-1.3,0-2.4,1.1-2.4,2.4s1.1,2.4,2.4,2.4c1.3,0,2.4-1.1,2.4-2.4S24,0.3,22.7,0.3 M129.2,0.3c-1.3,0-2.4,1.1-2.4,2.4
		s1.1,2.4,2.4,2.4c1.3,0,2.4-1.1,2.4-2.4S130.5,0.3,129.2,0.3 M146.2,28.9L146.2,28.9v0.9v0.1h0.1h0.3v5.8h-0.3h-0.1v0.1v0.8v0.1
		h0.1h1.6h0.1v-0.1v-0.8v-0.1h-0.1h-0.3V29v-0.1h-0.1H146.2L146.2,28.9z M162.6,28.9L162.6,28.9v0.9v0.1h0.1h0.3v4.5
		c0,0.3-0.1,0.6-0.2,0.9c-0.1,0.3-0.3,0.5-0.6,0.7l-0.1,0.1l0.1,0.1l0.6,0.6l0.1,0.1l0.1,0c0.2-0.1,0.3-0.3,0.4-0.4
		c0.1-0.1,0.2-0.3,0.3-0.4c0.2,0.2,0.3,0.4,0.6,0.6c0.3,0.2,0.6,0.3,1.1,0.3h0c0.7,0,1.2-0.3,1.6-0.8c0.4-0.5,0.6-1.2,0.6-1.9
		c0-0.7-0.2-1.4-0.6-1.9c-0.4-0.5-1-0.8-1.6-0.8h0c-0.4,0-0.8,0.2-1.1,0.4c-0.1,0.1-0.2,0.1-0.2,0.2V29v-0.1h-0.1H162.6L162.6,28.9z
		 M169.2,29.5c-0.2,0-0.3,0.1-0.4,0.2c-0.1,0.1-0.2,0.3-0.2,0.4c0,0.2,0.1,0.3,0.2,0.4c0.1,0.1,0.3,0.2,0.4,0.2
		c0.2,0,0.3-0.1,0.4-0.2c0.1-0.1,0.2-0.3,0.2-0.4c0-0.2-0.1-0.3-0.2-0.4C169.5,29.6,169.4,29.5,169.2,29.5 M138.1,29.8
		c-0.6,0-1.1,0.2-1.4,0.5c-0.4,0.3-0.7,0.8-0.8,1.3c-0.2,0.5-0.3,1.1-0.3,1.6s0.1,1.1,0.3,1.6c0.2,0.5,0.5,1,0.9,1.3
		c0.4,0.3,0.9,0.5,1.4,0.5c0.4,0,0.8-0.1,1.1-0.2c0.3-0.1,0.6-0.4,0.9-0.7l0.1-0.1l-0.1-0.1l-0.6-0.6l-0.1-0.1l-0.1,0.1
		c-0.2,0.2-0.4,0.4-0.6,0.5c-0.2,0.1-0.4,0.2-0.7,0.2c0,0,0,0,0,0c-0.5,0-0.9-0.3-1.2-0.8c-0.3-0.5-0.4-1.1-0.4-1.7
		c0-0.6,0.1-1.2,0.4-1.7c0.2-0.5,0.6-0.8,1.2-0.8h0c0.2,0,0.3,0,0.5,0.1c0.1,0,0.3,0.1,0.4,0.2v0.6v0.1h0.1h0.8h0.1v-0.1v-1v0l0,0
		c-0.3-0.3-0.6-0.5-0.9-0.6C138.8,29.9,138.5,29.8,138.1,29.8 M156.9,31.3c-0.3,0-0.6,0.1-0.8,0.3c-0.2,0.2-0.4,0.3-0.6,0.5
		c-0.1,0.1-0.1,0.1-0.1,0.2c-0.1-0.1-0.2-0.3-0.3-0.4c-0.1-0.2-0.3-0.3-0.5-0.5l-0.1-0.1l-0.1,0.1l-0.6,0.6l-0.1,0.1l0.1,0.1
		c0.3,0.2,0.5,0.4,0.6,0.7c0.1,0.3,0.2,0.5,0.2,0.9v2h-0.3h-0.1v0.1v0.8v0.1h0.1h1.5h0.1v-0.1v-0.8v-0.1H156h-0.3v-2.3
		c0,0,0,0,0-0.1c0,0,0.1-0.1,0.1-0.2c0.1-0.2,0.2-0.3,0.4-0.5c0.2-0.2,0.3-0.2,0.6-0.3h0c0.2,0,0.4,0.1,0.5,0.2
		c0.1,0.1,0.2,0.3,0.2,0.5v2.7h-0.3h-0.1v0.1v0.8v0.1h0.1h1.5h0.1v-0.1v-0.8v-0.1h-0.1h-0.3v-2.3c0,0,0,0,0-0.1c0,0,0.1-0.1,0.1-0.2
		c0.1-0.2,0.2-0.3,0.4-0.5c0.2-0.2,0.4-0.2,0.6-0.3h0c0.2,0,0.4,0.1,0.5,0.2c0.1,0.1,0.2,0.3,0.2,0.5v2.7h-0.3h-0.1v0.1v0.8v0.1h0.1
		h1.5h0.1v-0.1v-0.8v-0.1h-0.1h-0.3V33v0c0-0.5-0.1-0.9-0.4-1.2c-0.3-0.3-0.6-0.5-1.1-0.5h0c-0.3,0-0.5,0.1-0.8,0.2
		c-0.2,0.1-0.4,0.3-0.5,0.5c-0.1,0.1-0.1,0.1-0.1,0.1c-0.1-0.2-0.3-0.4-0.5-0.6C157.5,31.4,157.2,31.3,156.9,31.3 M143,31.3
		c-0.7,0-1.3,0.3-1.6,0.8c-0.4,0.5-0.6,1.2-0.6,1.9c0,0.7,0.2,1.4,0.6,1.9c0.4,0.5,1,0.8,1.6,0.8c0.7,0,1.3-0.3,1.6-0.8
		c0.4-0.5,0.6-1.2,0.6-1.9c0-0.7-0.2-1.4-0.6-1.9C144.2,31.6,143.7,31.4,143,31.3 M151.1,31.3c-0.7,0-1.2,0.3-1.6,0.8
		c-0.4,0.5-0.6,1.2-0.6,1.9c0,0.7,0.2,1.4,0.6,1.9c0.4,0.5,1,0.8,1.6,0.8h0c0.7,0,1.3-0.3,1.6-0.8c0.4-0.5,0.6-1.2,0.6-1.9
		c0-0.7-0.2-1.4-0.6-1.9C152.3,31.6,151.8,31.4,151.1,31.3L151.1,31.3z M172.8,31.3c-0.2,0-0.4,0-0.6,0.1c-0.2,0.1-0.4,0.2-0.5,0.3
		l-0.1,0.1l0.1,0.1l0.5,0.6l0.1,0.1l0.1-0.1c0.1-0.1,0.2-0.1,0.3-0.2c0.1,0,0.2-0.1,0.3-0.1c0.3,0,0.5,0.1,0.7,0.3
		c0.1,0.2,0.2,0.4,0.2,0.7H173c-0.6,0-1.1,0.1-1.5,0.4c-0.4,0.3-0.5,0.7-0.6,1.3v0c0,0.5,0.2,0.9,0.5,1.3c0.3,0.3,0.7,0.5,1.2,0.5h0
		c0.3,0,0.6-0.1,0.9-0.3c0.2-0.1,0.4-0.3,0.6-0.5c0.1,0.1,0.2,0.3,0.3,0.4c0.1,0.2,0.3,0.3,0.4,0.4l0.1,0l0.1-0.1l0.6-0.6l0.1-0.1
		l-0.1-0.1c-0.3-0.2-0.5-0.4-0.6-0.7c-0.1-0.3-0.2-0.5-0.2-0.9v-1.1c0-0.5-0.2-1-0.5-1.4C173.9,31.6,173.4,31.4,172.8,31.3
		L172.8,31.3z M168.3,31.5L168.3,31.5v0.9v0.1h0.1h0.3v3.3h-0.3h-0.1v0.1v0.8v0.1h0.1h1.6h0.1v-0.1v-0.8v-0.1H170h-0.3v-4.2v-0.1
		h-0.1H168.3L168.3,31.5z M143,32.3L143,32.3c0.4,0,0.7,0.2,0.9,0.5c0.2,0.4,0.3,0.8,0.3,1.2c0,0.5-0.1,0.9-0.3,1.2
		c-0.2,0.3-0.5,0.5-0.9,0.5h0c-0.4,0-0.7-0.2-0.9-0.5c-0.2-0.4-0.3-0.8-0.3-1.2c0-0.5,0.1-0.9,0.3-1.2
		C142.3,32.5,142.6,32.3,143,32.3 M151.1,32.3L151.1,32.3c0.4,0,0.7,0.2,0.9,0.5c0.2,0.4,0.3,0.8,0.3,1.2c0,0.5-0.1,0.9-0.3,1.2
		c-0.2,0.3-0.5,0.5-0.9,0.5h0c-0.4,0-0.7-0.2-0.9-0.5c-0.2-0.4-0.3-0.8-0.3-1.2c0-0.5,0.1-0.9,0.3-1.2
		C150.4,32.5,150.7,32.3,151.1,32.3 M165.2,32.3L165.2,32.3c0.4,0,0.7,0.2,0.9,0.5c0.2,0.4,0.3,0.8,0.3,1.2c0,0.5-0.1,0.9-0.3,1.2
		c-0.2,0.3-0.5,0.5-0.9,0.5h0c-0.4,0-0.7-0.2-0.9-0.5c-0.2-0.4-0.3-0.8-0.3-1.2c0-0.5,0.1-0.9,0.3-1.2
		C164.4,32.5,164.8,32.3,165.2,32.3 M173,34.2L173,34.2h0.7v0.2c0,0.1,0,0.3,0,0.4c0,0.1,0,0.1,0,0.2c0,0,0,0,0,0c0,0,0,0,0,0
		c0,0,0,0,0,0c0,0-0.1,0.1-0.1,0.2c-0.1,0.1-0.2,0.3-0.4,0.4c-0.2,0.1-0.4,0.2-0.6,0.2h0c-0.2,0-0.3-0.1-0.5-0.2
		c-0.1-0.2-0.2-0.3-0.2-0.6h0c0-0.3,0.1-0.5,0.2-0.6C172.3,34.3,172.6,34.2,173,34.2"/>
	<path class="st2" d="M20.6,7.5v13.8h-1.9v3.9h8v-3.9h-1.8V7.5H20.6z M55.2,7.6c-3.4,0-7,3-7.2,7.2h-2.8l0,3.1h2.6
		c0.4,4.4,3.9,7.7,7.6,7.6c3.7,0,4.7-1.4,6.6-2.9l-2.9-2.4c-3.3,2.9-6.9,1.2-7.3-2.3h10.6C62.5,14.9,61.7,7.6,55.2,7.6 M3.8,7.8L0,9
		l6.8,16.2h3L16.8,9l-3.9-1.1L8.4,19.2L3.8,7.8z M32.6,7.8L28.8,9l6.8,16.2h3L45.6,9l-3.9-1.1l-4.5,11.4L32.6,7.8z M55.1,11.4
		c1.5,0,3,1.1,2.9,3.4l-6,0.1C52.1,12.7,53.6,11.5,55.1,11.4"/>
</g>
</svg>
