<?xml version="1.0" encoding="utf-8"?>
<!-- Generator: Adobe Illustrator 22.0.1, SVG Export Plug-In . SVG Version: 6.00 Build 0)  -->
<svg version="1.1" id="Layer_1" xmlns="http://www.w3.org/2000/svg" xmlns:xlink="http://www.w3.org/1999/xlink" x="0px" y="0px"
	 viewBox="0 0 102.9 54.7" style="enable-background:new 0 0 102.9 54.7;" xml:space="preserve">
<style type="text/css">
	.st0{fill:#FFFFFF;}
</style>
<g>
	<g>
		<path class="st0" d="M51.5,33.3L35.7,17.5l1.5-1.6l13.2,13.2V0.5h2.1v28.6l13.3-13.2l1.5,1.6L51.5,33.3z"/>
	</g>
</g>
<g>
	<path class="st0" d="M1,44.4h1.8l2.4,7.1C5.4,52,5.4,52,5.4,52.4h0C5.5,52,5.5,52,5.7,51.5l2.4-7.1h1.8v9.2H8.8v-7.1
		c0-0.4,0-0.7,0.1-1H8.8c0,0.2-0.2,0.7-0.3,1.1L6,53.6H4.9l-2.4-7.1c-0.1-0.3-0.2-0.9-0.3-1.1H2.1c0,0.3,0.1,0.6,0.1,1v7.1H1V44.4z"
		/>
	<path class="st0" d="M17.5,51h-3.8l-0.9,2.7h-1.3l3.5-9.2h1.2l3.5,9.2h-1.3L17.5,51z M17.1,49.9l-1.3-3.6c-0.1-0.2-0.2-0.4-0.2-0.7
		h0c-0.1,0.3-0.1,0.5-0.2,0.7L14,49.9H17.1z M16.1,43.8h-1l1.2-1.4h1.2L16.1,43.8z"/>
	<path class="st0" d="M20.1,50.9l1.2-0.2c0.2,1.1,0.9,2.1,2.5,2.1c1,0,2.1-0.4,2.1-1.6c0-1.1-0.7-1.4-1.8-1.7l-1.3-0.3
		c-1.3-0.3-2.3-1-2.3-2.5c0-1.5,1.2-2.6,3.2-2.6c1.8,0,3.2,0.8,3.4,2.6l-1.2,0.3c-0.2-1.2-0.8-1.9-2.2-1.9c-1.1,0-1.9,0.6-1.9,1.5
		c0,0.9,0.5,1.4,1.5,1.6l1.4,0.3c1.4,0.3,2.5,0.9,2.5,2.6c0,1.4-1.1,2.7-3.4,2.7C21.5,53.9,20.3,52.6,20.1,50.9z"/>
	<path class="st0" d="M37.4,51h-3.8l-0.9,2.7h-1.3l3.5-9.2h1.2l3.5,9.2h-1.3L37.4,51z M37,49.9l-1.3-3.6c-0.1-0.2-0.2-0.4-0.2-0.7h0
		c-0.1,0.3-0.1,0.5-0.2,0.7l-1.3,3.6H37z"/>
	<path class="st0" d="M44.2,49.8h-1.9v3.8h-1.2v-9.2h3.4c2.4,0,3.1,1.4,3.1,2.7c0,1-0.5,2.2-2.1,2.5l2.4,4h-1.4L44.2,49.8z
		 M42.4,48.8h2c1.4,0,1.9-0.7,1.9-1.7c0-0.9-0.5-1.7-1.9-1.7h-2V48.8z"/>
	<path class="st0" d="M55.6,45.4h-2.9v8.2h-1.2v-8.2h-2.9v-1h7V45.4z"/>
	<path class="st0" d="M57.1,53.6v-9.2h1.2v9.2H57.1z M58,42.4h1.1l-1,1.4h-1L58,42.4z"/>
	<path class="st0" d="M60.2,49c0-2.8,1.5-4.8,4.2-4.8c2.2,0,3.4,1.3,3.7,3.2l-1.3,0.1c-0.2-1.4-1-2.3-2.5-2.3
		c-1.8,0-2.8,1.5-2.8,3.7c0,2.2,1,3.8,2.9,3.8c1.3,0,2.2-0.9,2.5-2.2l1.2,0.2c-0.4,1.7-1.5,3.1-3.7,3.1C61.5,53.9,60.2,51.7,60.2,49
		z"/>
	<path class="st0" d="M71,44.4v5.9c0,1.5,0.8,2.4,2.3,2.4s2.3-0.9,2.3-2.4v-5.9h1.2v6c0,2.1-1.3,3.4-3.5,3.4s-3.5-1.4-3.5-3.4v-6H71
		z"/>
	<path class="st0" d="M79.2,44.4h1.2v8.2h4.3v1h-5.5V44.4z"/>
	<path class="st0" d="M85.6,49c0-3,1.7-4.8,4.2-4.8c2.5,0,4.2,1.8,4.2,4.8c0,3-1.7,4.8-4.2,4.8C87.2,53.9,85.6,52,85.6,49z M92.7,49
		c0-2.4-1.1-3.8-2.9-3.8c-1.8,0-2.9,1.4-2.9,3.8c0,2.3,1.1,3.8,2.9,3.8C91.7,52.8,92.7,51.4,92.7,49z"/>
	<path class="st0" d="M95,50.9l1.2-0.2c0.2,1.1,0.9,2.1,2.5,2.1c1,0,2.1-0.4,2.1-1.6c0-1.1-0.7-1.4-1.8-1.7l-1.3-0.3
		c-1.3-0.3-2.3-1-2.3-2.5c0-1.5,1.2-2.6,3.2-2.6c1.8,0,3.2,0.8,3.4,2.6l-1.2,0.3c-0.2-1.2-0.8-1.9-2.2-1.9c-1.1,0-1.9,0.6-1.9,1.5
		c0,0.9,0.5,1.4,1.5,1.6l1.4,0.3c1.4,0.3,2.5,0.9,2.5,2.6c0,1.4-1.1,2.7-3.4,2.7C96.3,53.9,95.2,52.6,95,50.9z"/>
</g>
</svg>
