<?xml version="1.0" encoding="utf-8"?>
<!-- Generator: Adobe Illustrator 22.0.1, SVG Export Plug-In . SVG Version: 6.00 Build 0)  -->
<svg version="1.1" id="Layer_1" xmlns="http://www.w3.org/2000/svg" xmlns:xlink="http://www.w3.org/1999/xlink" x="0px" y="0px"
	 viewBox="0 0 51.4 51.7" style="enable-background:new 0 0 51.4 51.7;" xml:space="preserve">
<style type="text/css">
	.st0{fill:#FFFFFF;}
</style>
<title>close</title>
<g>
	<path class="st0" d="M51.5,49.5l-2.1,2.1l-16-15.8c-0.9,0.7-1.8,1.4-2.8,2s-2,1.1-3.1,1.5s-2.2,0.7-3.4,1c-1.2,0.2-2.4,0.4-3.6,0.4
		c-2.8,0-5.4-0.5-7.8-1.6s-4.5-2.5-6.3-4.3s-3.2-3.9-4.3-6.4c-1.1-2.4-1.6-5-1.6-7.7c0-1.4,0.1-2.7,0.4-3.9c0.2-1.3,0.6-2.5,1.1-3.7
		s1.1-2.4,1.8-3.5s1.5-2.1,2.5-3.1c0.9-0.9,2-1.7,3.1-2.4s2.2-1.4,3.4-1.8c1.2-0.5,2.4-0.8,3.7-1.1c1.3-0.3,2.6-0.4,4-0.4
		c2.7,0,5.3,0.5,7.7,1.6s4.6,2.5,6.4,4.3c1.8,1.8,3.2,3.9,4.3,6.3s1.6,5,1.6,7.8c0,1.2-0.1,2.4-0.4,3.6c-0.2,1.2-0.6,2.3-1,3.4
		s-0.9,2.1-1.5,3.1s-1.3,1.9-2,2.8L51.5,49.5z M20.5,37.6c2.3,0,4.5-0.5,6.5-1.4s3.8-2.1,5.3-3.7c1.5-1.5,2.7-3.3,3.6-5.3
		c0.9-2,1.3-4.2,1.3-6.5s-0.4-4.5-1.3-6.6c-0.9-2.1-2.1-3.9-3.6-5.4S29,6,27,5.1s-4.2-1.3-6.5-1.3c-1.2,0-2.3,0.1-3.4,0.4
		c-1.1,0.2-2.1,0.6-3.2,1s-2,0.9-2.9,1.5S9.4,8,8.6,8.8c-0.8,0.8-1.5,1.7-2.1,2.6s-1.1,1.9-1.6,2.8c-0.4,1-0.8,2-1,3.1
		c-0.2,1.1-0.3,2.2-0.3,3.4c0,2.3,0.4,4.5,1.3,6.6s2.1,3.9,3.6,5.3c1.5,1.5,3.3,2.7,5.4,3.6C16,37.2,18.2,37.6,20.5,37.6z"/>
</g>
</svg>
