<?xml version="1.0" encoding="utf-8"?>
<!-- Generator: Adobe Illustrator 22.0.1, SVG Export Plug-In . SVG Version: 6.00 Build 0)  -->
<svg version="1.1" id="Layer_1" xmlns="http://www.w3.org/2000/svg" xmlns:xlink="http://www.w3.org/1999/xlink" x="0px" y="0px"
	 viewBox="0 0 271.7 183.1" style="enable-background:new 0 0 271.7 183.1;" xml:space="preserve">
<path d="M267.1,88.3c0,0.3,0.1,0.8,0.3,1.3c0.2,0.5,0.3,1,0.3,1.3s-0.1,0.8-0.3,1.3c-0.2,0.5-0.3,1.1-0.3,1.8
	c-5.2,12.4-12.1,23.9-20.9,34.4c-8.8,10.5-19,19.5-30.5,26.9s-24.1,13.2-37.7,17.3c-13.6,4.1-27.8,6.2-42.6,6.2
	c-14.8,0-29-2.1-42.6-6.2c-13.6-4.1-26.2-9.9-37.7-17.3c-11.5-7.4-21.7-16.4-30.5-26.9S8.8,106.4,3.7,94c0-0.7-0.1-1.3-0.3-1.8
	c-0.3-0.6-0.4-1-0.4-1.3c0-0.3,0.1-0.8,0.3-1.3s0.3-0.9,0.3-1.3c5.2-12.7,12.1-24.4,20.9-34.9S43.4,33.9,55,26.5
	c11.5-7.4,24.1-13.2,37.7-17.3S120.5,3,135.4,3c14.8,0,29,2.1,42.6,6.2s26.2,9.9,37.7,17.3s21.7,16.4,30.5,26.9S262,75.5,267.1,88.3
	L267.1,88.3z M135.4,163.2c12.7,0,25.1-1.7,37.2-5.2c12.1-3.4,23.2-8.4,33.3-14.7c10.2-6.4,19.1-14,26.9-22.7
	c7.8-8.8,14-18.7,18.9-29.7c-4.8-10.7-11.1-20.5-18.9-29.5c-7.8-9-16.7-16.6-26.9-23s-21.3-11.3-33.3-14.7
	c-12.1-3.4-24.5-5.2-37.2-5.2c-12.8,0-25.2,1.7-37.2,5.2C86.1,27.1,75,32,64.8,38.4s-19.1,14-26.9,23S23.9,80.2,19,90.9
	c4.8,11,11.1,20.9,18.9,29.7s16.7,16.4,26.9,22.7c10.2,6.4,21.3,11.3,33.3,14.7C110.2,161.5,122.6,163.2,135.4,163.2L135.4,163.2z
	 M135.4,34c7.9,0,15.3,1.6,22.2,4.7c6.9,3.1,12.8,7.2,17.8,12.1c5,5,9,10.9,12.1,17.8s4.7,14.3,4.7,22.2s-1.6,15.3-4.7,22.2
	c-3.1,6.9-7.2,12.9-12.1,18.1c-5,5.2-10.9,9.2-17.8,12.1c-6.9,2.9-14.3,4.4-22.2,4.4s-15.3-1.5-22.2-4.4c-6.9-2.9-12.8-7-17.8-12.1
	c-5-5.2-9-11.2-12.1-18.1s-4.7-14.3-4.7-22.2s1.6-15.3,4.7-22.2c3.1-6.9,7.1-12.8,12.1-17.8s10.9-9,17.8-12.1
	C120,35.6,127.4,34,135.4,34L135.4,34z M135.4,132.2c5.5,0,10.8-1.1,15.8-3.4c5-2.2,9.4-5.2,13.2-8.8c3.8-3.6,6.8-7.9,9-12.9
	s3.4-10.4,3.4-16.3c0-5.5-1.1-10.8-3.4-15.8c-2.2-5-5.3-9.4-9-13.2c-3.8-3.8-8.2-6.8-13.2-9s-10.3-3.4-15.8-3.4s-10.8,1.1-15.8,3.4
	c-5,2.2-9.4,5.3-13.2,9c-3.8,3.8-6.8,8.2-9,13.2S94,85.3,94,90.8c0,5.9,1.1,11.3,3.4,16.3c2.2,5,5.2,9.3,9,12.9s8.2,6.5,13.2,8.8
	C124.6,131.1,129.8,132.2,135.4,132.2L135.4,132.2z M135.4,69.7c2.8,0,5.4,0.6,8,1.8c2.6,1.2,4.8,2.8,6.7,4.7
	c1.9,1.9,3.4,4.1,4.7,6.7c1.2,2.6,1.8,5.3,1.8,8c0,3.1-0.6,5.9-1.8,8.3s-2.8,4.6-4.7,6.5s-4.1,3.4-6.7,4.7c-2.6,1.2-5.3,1.8-8,1.8
	c-2.8,0-5.4-0.6-8-1.8c-2.6-1.2-4.8-2.8-6.7-4.7c-1.9-1.9-3.4-4-4.7-6.5c-1.2-2.4-1.8-5.2-1.8-8.3c0-2.8,0.6-5.4,1.8-8
	c1.2-2.6,2.8-4.8,4.7-6.7c1.9-1.9,4.1-3.4,6.7-4.7C129.9,70.3,132.6,69.7,135.4,69.7L135.4,69.7z M135.4,96.5c0.7,0,1.4-0.2,2.1-0.5
	c0.7-0.3,1.3-0.8,1.8-1.3s0.9-1.1,1.3-1.8c0.3-0.7,0.5-1.4,0.5-2.1s-0.2-1.4-0.5-2.1s-0.8-1.3-1.3-1.8s-1.1-0.9-1.8-1.3
	c-0.7-0.3-1.4-0.5-2.1-0.5c-0.7,0-1.4,0.2-2.1,0.5c-0.7,0.3-1.3,0.8-1.8,1.3s-1,1.1-1.3,1.8c-0.3,0.7-0.5,1.4-0.5,2.1
	s0.2,1.4,0.5,2.1s0.8,1.3,1.3,1.8s1.1,1,1.8,1.3C134,96.4,134.7,96.5,135.4,96.5L135.4,96.5z"/>
</svg>
