<?xml version="1.0" encoding="utf-8"?>
<!-- Generator: Adobe Illustrator 22.0.1, SVG Export Plug-In . SVG Version: 6.00 Build 0)  -->
<svg version="1.1" id="Layer_1" xmlns="http://www.w3.org/2000/svg" xmlns:xlink="http://www.w3.org/1999/xlink" x="0px" y="0px"
	 viewBox="0 0 13.5 12.1" style="enable-background:new 0 0 13.5 12.1;" xml:space="preserve">
<style type="text/css">
	.st0{fill:#FFFFFF;}
</style>
<g>
	<path class="st0" d="M12.2,1.5c0.1,0.1,0.1,0.2,0.2,0.3c0,0.1,0.1,0.2,0.1,0.3c0,0.1,0,0.2,0,0.4c0,0.1,0,0.3,0,0.4
		c0,0.2-0.1,0.5-0.2,0.8c-0.1,0.4-0.3,0.8-0.5,1.3c-0.2,0.5-0.5,1-0.8,1.6c-0.3,0.6-0.7,1.1-1.1,1.7C9.7,8.6,9.5,8.9,9.3,9.1
		C9.1,9.3,8.9,9.5,8.7,9.8C8.5,10,8.3,10.2,8,10.4c-0.2,0.2-0.5,0.4-0.7,0.5C7.2,11,7.1,11,7,11.1c-0.1,0.1-0.3,0.1-0.4,0.1
		c-0.2,0-0.3,0.1-0.5,0.1c-0.2,0-0.3,0-0.4-0.1c-0.3-0.1-0.5-0.3-0.6-0.5c-0.2-0.3-0.3-0.5-0.4-0.9c-0.1-0.3-0.2-0.7-0.3-1
		c-0.1-0.4-0.2-0.7-0.2-1C4,7.6,4,7.5,3.9,7.3c0-0.2-0.1-0.3-0.1-0.5c0-0.2-0.1-0.3-0.1-0.5c0-0.2-0.1-0.3-0.2-0.5
		c0-0.1-0.1-0.2-0.1-0.3c0-0.1-0.1-0.2-0.1-0.3c0-0.1-0.1-0.2-0.1-0.3c0-0.1-0.1-0.2-0.2-0.3C2.9,4.3,2.8,4.2,2.7,4.2
		c-0.1,0-0.2,0-0.4,0c-0.1,0-0.3,0.1-0.4,0.1s-0.3,0.1-0.5,0c-0.1,0-0.1,0-0.1-0.1c0,0,0-0.1-0.1-0.1c0,0-0.1-0.1-0.1-0.1
		c0,0-0.1-0.1-0.2-0.1V3.8c0.2-0.2,0.5-0.4,0.7-0.6C1.9,3,2.1,2.8,2.3,2.6c0.2-0.2,0.4-0.4,0.6-0.6c0.2-0.2,0.4-0.3,0.7-0.5
		c0.1,0,0.2-0.1,0.3-0.1c0.1,0,0.2-0.1,0.3-0.1c0.1,0,0.2,0,0.4,0c0.1,0,0.2,0,0.3,0c0.1,0,0.2,0.1,0.3,0.2c0.1,0.1,0.2,0.2,0.2,0.3
		C5.5,1.9,5.6,2,5.7,2.1c0.1,0.1,0.1,0.2,0.1,0.4c0,0.1,0.1,0.3,0.1,0.4C5.9,3.1,6,3.2,6,3.4c0,0.1,0,0.3,0.1,0.4
		c0,0.1,0.1,0.3,0.1,0.4c0,0.2,0.1,0.5,0.1,0.8c0,0.3,0.1,0.6,0.1,0.9c0,0.3,0.1,0.6,0.2,0.8c0.1,0.3,0.2,0.5,0.4,0.7
		c0.2,0.2,0.3,0.3,0.5,0.3c0.2,0,0.3-0.1,0.5-0.2C8,7.3,8.1,7.1,8.2,6.9c0.1-0.2,0.2-0.3,0.3-0.5C8.6,6.3,8.6,6.2,8.7,6
		c0.1-0.1,0.1-0.3,0.2-0.4c0-0.1,0.1-0.3,0.1-0.4C9,5.1,9,5,9,4.9c0-0.3,0-0.5,0-0.7C8.9,4,8.8,3.9,8.7,3.8C8.6,3.7,8.4,3.7,8.3,3.7
		c-0.2,0-0.4,0-0.7,0c0.1-0.5,0.3-0.9,0.6-1.2C8.4,2.2,8.7,1.9,9,1.7c0.3-0.2,0.5-0.4,0.8-0.5C10,1.1,10.2,1,10.3,1
		c0.2,0,0.3,0,0.5,0c0.2,0,0.3,0,0.5,0c0.2,0,0.3,0.1,0.5,0.2S12.1,1.3,12.2,1.5z"/>
</g>
</svg>
